# xmcd
# Copyright (C) 1995-1998 Ti Kan
#
# Track frame offsets:
#       150
#       16287
#       30938
#       45079
#       60439
#       71968
#       87877
#       113842
#
# Disc length: 2045 seconds
#
# Revision: 0
# Processed by: cddbd v1.5.2PL0 Copyright (c) Steve Scherf et al.
# Submitted via: CD-Import v1.0
#
DISCID=5607fb08
DTITLE=King Louis - Holidays In Purgatory
DYEAR=07
DGENRE=
TTITLE0=Rockbabyblue
TTITLE1=A Song About A Woman And A Boy
TTITLE2=Hot Knife
TTITLE3=Time To Say Good Bye
TTITLE4=You'll Die
TTITLE5=Keep On Fucking
TTITLE6=Holidays In Purgatory
TTITLE7=Do It All Again
EXTD=
EXTT0=
EXTT1=
EXTT2=
EXTT3=
EXTT4=
EXTT5=
EXTT6=
EXTT7=
PLAYORDER=
